<mxfile host="app.diagrams.net" modified="2024-05-14T05:06:51.568Z" agent="Mozilla/5.0 (Windows NT 10.0; Win64; x64) AppleWebKit/537.36 (KHTML, like Gecko) Chrome/124.0.0.0 Safari/537.36 Edg/124.0.0.0" version="24.4.0" etag="W7NBPHJ3qxvEz9HBauGF" type="github">
  <diagram name="Страница — 1" id="EiT_l3cX7Ohx0H3xTzyH">
    <mxGraphModel>
      <root>
        <mxCell id="0" />
        <mxCell id="1" parent="0" />
      </root>
    </mxGraphModel>
  </diagram>
</mxfile>
